<?xml version="1.0" encoding="UTF-8" standalone="no"?>
<!-- Created with Inkscape (http://www.inkscape.org/) -->

<svg
   version="1.1"
   id="svg1"
   width="512"
   height="512"
   viewBox="0 0 426.66667 426.66666"
   sodipodi:docname="icon-192x192.svg"
   inkscape:version="1.4 (e7c3feb100, 2024-10-09)"
   inkscape:export-filename="icon-192x192.svg"
   inkscape:export-xdpi="36"
   inkscape:export-ydpi="36"
   xmlns:inkscape="http://www.inkscape.org/namespaces/inkscape"
   xmlns:sodipodi="http://sodipodi.sourceforge.net/DTD/sodipodi-0.dtd"
   xmlns="http://www.w3.org/2000/svg"
   xmlns:svg="http://www.w3.org/2000/svg">
  <defs
     id="defs1" />
  <sodipodi:namedview
     id="namedview1"
     pagecolor="#ffffff"
     bordercolor="#000000"
     borderopacity="0.25"
     inkscape:showpageshadow="2"
     inkscape:pageopacity="0.0"
     inkscape:pagecheckerboard="true"
     inkscape:deskcolor="#d1d1d1"
     inkscape:zoom="1.640754"
     inkscape:cx="86.545575"
     inkscape:cy="229.46767"
     inkscape:window-width="3440"
     inkscape:window-height="1403"
     inkscape:window-x="1080"
     inkscape:window-y="346"
     inkscape:window-maximized="1"
     inkscape:current-layer="layer2"
     inkscape:export-bgcolor="#ffffff00" />
  <g
     inkscape:groupmode="layer"
     id="layer2"
     inkscape:label="Border"
     transform="translate(-70,-70)">
    <g
       id="g1"
       transform="translate(8.9842069,10.507897)">
      <rect
         style="display:inline;fill:#ffffff;fill-opacity:1;stroke:none;stroke-width:5"
         id="rect2"
         width="192"
         height="192"
         x="186.20602"
         y="172.63385"
         inkscape:label="white BG FOR R" />
      <path
         style="display:inline;fill:#1a1a1a;stroke-width:1.14677"
         d="m 249.30806,477.71825 c -6.62259,-0.80975 -16.42746,-2.51993 -21.7886,-3.80045 -5.36114,-1.28051 -13.8759,-3.69304 -18.92168,-5.36119 -5.04578,-1.66816 -15.62471,-6.12602 -23.50875,-9.90636 -7.88402,-3.78036 -19.23703,-10.17775 -25.2289,-14.21643 -5.99186,-4.03868 -15.43539,-11.27876 -20.98563,-16.08905 -5.55023,-4.8103 -14.21803,-13.47251 -19.26178,-19.24935 -5.04374,-5.77685 -12.46923,-15.4058 -16.50107,-21.39766 -4.031836,-5.99185 -10.423634,-17.34486 -14.203986,-25.2289 -3.780352,-7.88403 -8.234279,-18.45224 -9.897617,-23.48491 -1.663338,-5.03265 -4.02679,-13.28938 -5.252113,-18.34828 -1.225324,-5.0589 -2.995426,-15.64541 -3.93356,-23.52557 -0.938132,-7.88017 -1.705697,-18.7203 -1.705697,-24.08917 0,-5.36887 0.767565,-16.20899 1.705697,-24.08915 0.938134,-7.88018 2.708236,-18.46668 3.93356,-23.52557 1.225323,-5.0589 3.588775,-13.31563 5.252113,-18.34829 1.663338,-5.03268 6.117265,-15.60087 9.897617,-23.48491 3.780352,-7.88403 10.17215,-19.23704 14.203986,-25.2289 4.03184,-5.99187 11.45733,-15.6208 16.50107,-21.39764 5.04375,-5.77685 13.71155,-14.43906 19.26178,-19.24936 5.55024,-4.81029 14.99377,-12.05037 20.98563,-16.08905 5.99187,-4.038679 17.34488,-10.436067 25.2289,-14.216418 7.88404,-3.780352 18.45224,-8.23428 23.48491,-9.897617 5.03267,-1.663339 13.2894,-4.02679 18.3483,-5.252114 5.05888,-1.225324 15.64539,-2.995426 23.52555,-3.933559 7.88017,-0.938133 18.7203,-1.705697 24.08917,-1.705697 5.36887,0 16.209,0.767564 24.08917,1.705697 7.88016,0.938133 18.46667,2.708235 23.52555,3.933559 5.0589,1.225324 13.31563,3.588775 18.3483,5.252114 5.03267,1.663337 15.60087,6.117265 23.48491,9.897617 7.88402,3.780351 19.23703,10.177739 25.2289,14.216418 5.99186,4.03868 15.43539,11.27876 20.98563,16.08905 5.55023,4.8103 14.21803,13.47251 19.26178,19.24936 5.04374,5.77684 12.46923,15.40577 16.50107,21.39764 4.03184,5.99186 10.42364,17.34487 14.20399,25.2289 3.78035,7.88404 8.23428,18.45223 9.89762,23.48491 1.66333,5.03266 4.02679,13.28939 5.25211,18.34829 1.22533,5.05889 2.99543,15.64539 3.93356,23.52557 0.93814,7.88016 1.7057,18.72028 1.7057,24.08915 0,5.36887 -0.76756,16.209 -1.7057,24.08917 -0.93813,7.88016 -2.70823,18.46667 -3.93356,23.52557 -1.22532,5.0589 -3.58878,13.31563 -5.25211,18.34828 -1.66334,5.03267 -6.11727,15.60088 -9.89762,23.48491 -3.78035,7.88404 -10.17773,19.23705 -14.21643,25.2289 -4.03866,5.99186 -11.27874,15.43541 -16.08904,20.98563 -4.8103,5.55023 -13.4725,14.21804 -19.24935,19.26179 -5.77684,5.04374 -15.40579,12.46922 -21.39765,16.50107 -5.99187,4.03184 -17.34488,10.42364 -25.2289,14.204 -7.88404,3.78034 -18.45224,8.23428 -23.48491,9.8976 -5.03267,1.66335 -13.2894,4.0268 -18.3483,5.25212 -5.05888,1.22532 -15.64539,2.99543 -23.52555,3.93355 -7.88017,0.93814 -19.4912,1.64975 -25.80229,1.58134 -6.31109,-0.0684 -16.89319,-0.78688 -23.51578,-1.59661 z M 251.6016,325.7259 v -26.42204 l -9.46084,0.33306 -9.46084,0.33307 -0.31025,24.62716 c -0.17064,13.54494 -0.0578,25.28498 0.25069,26.08897 0.39014,1.01669 3.36558,1.46183 9.7711,1.46183 h 9.21014 z m 94.03499,25.32656 c 0,-0.60252 -2.38668,-6.66606 -5.30374,-13.47454 -2.91705,-6.80846 -9.62984,-22.65274 -14.91731,-35.20949 -5.28747,-12.55678 -9.48036,-22.94462 -9.31755,-23.0841 0.1628,-0.1395 2.93169,-1.57725 6.15306,-3.19499 3.22139,-1.61775 7.43506,-4.26916 9.36374,-5.89202 1.92865,-1.62287 4.78416,-5.13476 6.34555,-7.80421 1.5614,-2.66945 3.66929,-7.65645 4.6842,-11.08222 1.01491,-3.42577 1.84528,-9.13762 1.84528,-12.693 0,-3.55539 -0.78505,-9.1079 -1.74456,-12.33892 -0.95952,-3.23103 -3.92677,-9.10066 -6.59392,-13.04362 -2.74643,-4.06017 -7.21687,-8.77997 -10.30884,-10.88389 -3.00273,-2.04319 -8.42121,-4.6512 -12.04106,-5.79558 -5.79385,-1.83167 -11.04229,-2.08117 -43.85155,-2.08464 l -37.26997,-0.004 -0.30281,36.4099 -0.30279,36.40989 h -12.59835 c -9.34571,0 -12.58306,0.37008 -12.53916,1.43345 0.0325,0.78841 1.24459,4.52974 2.69347,8.31407 l 2.63431,6.88061 42.1964,0.57339 42.19642,0.57339 13.38636,31.53613 c 7.3625,17.34486 13.72221,32.4392 14.13269,33.54296 0.6352,1.70806 2.28834,2.00685 11.10323,2.00685 5.81692,-4.9e-4 10.3569,-0.4807 10.3569,-1.09599 z M 251.6016,239.85852 v -27.6163 h 25.08471 c 19.5101,0 26.18237,0.38727 30.02392,1.74265 2.71655,0.95846 6.70795,3.09175 8.86977,4.74064 2.16181,1.64889 4.89516,5.12208 6.07409,7.71818 1.38956,3.0599 2.14354,7.34211 2.14354,12.1742 0,4.77149 -0.75406,9.11393 -2.09533,12.06652 -1.15242,2.53689 -3.68496,6.20216 -5.62787,8.14507 -1.9429,1.9429 -5.50407,4.51167 -7.91371,5.70838 -3.83386,1.90404 -7.6403,2.22339 -30.47015,2.55641 l -26.08897,0.38054 z"
         id="path1"
         sodipodi:insensitive="true" />
    </g>
  </g>
  <g
     inkscape:groupmode="layer"
     id="layer3"
     inkscape:label="crop"
     transform="translate(-70,-70)" />
</svg>
