<?xml version="1.0" encoding="UTF-8" standalone="no"?>
<!-- Created with Inkscape (http://www.inkscape.org/) -->

<svg
   version="1.1"
   id="svg1"
   width="415"
   height="415"
   viewBox="0 0 415 415"
   sodipodi:docname="icon-192x192.svg"
   inkscape:version="1.4 (e7c3feb100, 2024-10-09)"
   inkscape:export-filename="../icons/icon-512x512.png"
   inkscape:export-xdpi="118.43855"
   inkscape:export-ydpi="118.43855"
   xmlns:inkscape="http://www.inkscape.org/namespaces/inkscape"
   xmlns:sodipodi="http://sodipodi.sourceforge.net/DTD/sodipodi-0.dtd"
   xmlns="http://www.w3.org/2000/svg"
   xmlns:svg="http://www.w3.org/2000/svg">
  <defs
     id="defs1" />
  <sodipodi:namedview
     id="namedview1"
     pagecolor="#ffffff"
     bordercolor="#000000"
     borderopacity="0.25"
     inkscape:showpageshadow="2"
     inkscape:pageopacity="0.0"
     inkscape:pagecheckerboard="true"
     inkscape:deskcolor="#d1d1d1"
     inkscape:zoom="1"
     inkscape:cx="-28"
     inkscape:cy="156.5"
     inkscape:window-width="3440"
     inkscape:window-height="1403"
     inkscape:window-x="1080"
     inkscape:window-y="346"
     inkscape:window-maximized="1"
     inkscape:current-layer="layer2"
     inkscape:export-bgcolor="#ffffff00" />
  <g
     inkscape:groupmode="layer"
     id="layer2"
     inkscape:label="Border"
     transform="translate(-43.669048,-42.254829)">
    <g
       id="g1"
       transform="translate(10,10)">
      <path
         style="fill:#1a1a1a"
         d="m 218,418.49928 c -5.775,-0.70611 -14.325,-2.19742 -19,-3.31405 -4.675,-1.11662 -12.1,-3.22039 -16.5,-4.67504 -4.4,-1.45466 -13.625,-5.34199 -20.5,-8.63851 -6.875,-3.29653 -16.775,-8.87515 -22,-12.39695 -5.225,-3.52179 -13.45991,-9.83525 -18.2998,-14.0299 -4.83989,-4.19466 -12.39835,-11.74824 -16.79658,-16.78574 C 100.5054,353.62159 94.030257,345.225 90.514427,340 86.998596,334.775 81.42485,324.875 78.128324,318 c -3.296526,-6.875 -7.180421,-16.09064 -8.630878,-20.47921 -1.450457,-4.38856 -3.511424,-11.58856 -4.579925,-16 -1.068502,-4.41143 -2.612059,-13.64303 -3.430126,-20.51466 C 60.669328,254.1345 60,244.68174 60,240 c 0,-4.68174 0.669328,-14.1345 1.487395,-21.00613 0.818067,-6.87163 2.361624,-16.10323 3.430126,-20.51466 1.068501,-4.41144 3.129468,-11.61144 4.579925,-16 1.450457,-4.38857 5.334352,-13.60421 8.630878,-20.47921 3.296526,-6.875 8.870272,-16.775 12.386103,-22 3.51583,-5.225 9.990973,-13.62159 14.389193,-18.65909 4.39823,-5.0375 11.95669,-12.59108 16.79658,-16.78574 4.83989,-4.19465 13.0748,-10.508113 18.2998,-14.029905 5.225,-3.521792 15.125,-9.100415 22,-12.396941 6.875,-3.296526 16.09064,-7.180421 20.47921,-8.630878 4.38856,-1.450457 11.58856,-3.511424 16,-4.579925 4.41143,-1.068502 13.64303,-2.612059 20.51466,-3.430126 C 225.8655,60.669328 235.31826,60 240,60 c 4.68174,0 14.1345,0.669328 21.00613,1.487395 6.87163,0.818067 16.10323,2.361624 20.51466,3.430126 4.41144,1.068501 11.61144,3.129468 16,4.579925 4.38857,1.450457 13.60421,5.334352 20.47921,8.630878 6.875,3.296526 16.775,8.875149 22,12.396941 5.225,3.521792 13.45991,9.835255 18.2998,14.029905 4.83989,4.19466 12.39835,11.74824 16.79658,16.78574 4.39822,5.0375 10.87336,13.43409 14.38919,18.65909 3.51583,5.225 9.08958,15.125 12.38611,22 3.29652,6.875 7.18042,16.09064 8.63087,20.47921 1.45046,4.38856 3.51143,11.58856 4.57993,16 1.0685,4.41143 2.61206,13.64303 3.43012,20.51466 C 419.33067,225.8655 420,235.31826 420,240 c 0,4.68174 -0.66933,14.1345 -1.4874,21.00613 -0.81806,6.87163 -2.36162,16.10323 -3.43012,20.51466 -1.0685,4.41144 -3.12947,11.61144 -4.57993,16 -1.45045,4.38857 -5.33435,13.60421 -8.63087,20.47921 -3.29653,6.875 -8.87515,16.775 -12.39695,22 -3.52179,5.225 -9.83525,13.45991 -14.0299,18.2998 -4.19466,4.83989 -11.74824,12.39835 -16.78574,16.79658 -5.0375,4.39822 -13.43409,10.87336 -18.65909,14.38919 -5.225,3.51583 -15.125,9.08958 -22,12.38611 -6.875,3.29652 -16.09064,7.18042 -20.47921,8.63087 -4.38856,1.45046 -11.58856,3.51143 -16,4.57993 -4.41143,1.0685 -13.64303,2.61206 -20.51466,3.43012 -6.87163,0.81807 -16.99663,1.4386 -22.5,1.37895 C 233.00276,419.8319 223.775,419.20538 218,418.49928 Z m 2,-132.53972 v -23.04044 l -8.25,0.29044 -8.25,0.29044 -0.27054,21.47527 c -0.1488,11.8114 -0.0504,22.0489 0.21861,22.75 0.3402,0.88656 2.93484,1.27473 8.52055,1.27473 H 220 Z m 82,22.08515 c 0,-0.5254 -2.08122,-5.8129 -4.62494,-11.75 -2.54372,-5.93709 -8.39738,-19.75355 -13.00814,-30.70324 -4.61075,-10.9497 -8.26702,-20.00806 -8.12505,-20.1297 0.14197,-0.12164 2.55648,-1.37538 5.36557,-2.78608 2.8091,-1.4107 6.48349,-3.72277 8.16532,-5.13793 1.68182,-1.41517 4.17187,-4.47759 5.53343,-6.80539 1.36156,-2.32781 3.19967,-6.67655 4.08469,-9.66387 C 300.2759,218.08117 301,213.10035 301,210 c 0,-3.10035 -0.68458,-7.94223 -1.52129,-10.75973 -0.83671,-2.81751 -3.42421,-7.93592 -5.75,-11.37424 -2.39493,-3.54053 -6.29322,-7.65628 -8.98947,-9.49093 -2.61843,-1.78169 -7.34343,-4.05592 -10.5,-5.05384 -5.05233,-1.59724 -9.62905,-1.81481 -38.23924,-1.81783 l -32.5,-0.003 -0.26405,31.75 -0.26404,31.75 h -10.98596 c -8.14961,0 -10.97263,0.32272 -10.93435,1.25 0.0284,0.6875 1.08531,3.95 2.34875,7.25 l 2.29716,6 36.79593,0.5 36.79594,0.5 11.67312,27.5 c 6.42022,15.125 11.96598,28.2875 12.32393,29.25 0.5539,1.48945 1.99546,1.75 9.68219,1.75 C 298.04106,309 302,308.58125 302,308.04471 Z M 220,211.08185 V 187 h 21.87427 c 17.01311,0 22.83144,0.33771 26.18133,1.51962 2.36888,0.83579 5.84944,2.69605 7.73458,4.13391 1.88513,1.43786 4.26865,4.46653 5.2967,6.73038 1.21172,2.66828 1.8692,6.40243 1.8692,10.61609 0,4.16081 -0.65755,7.94749 -1.82716,10.52219 -1.00493,2.21221 -3.21335,5.40839 -4.90759,7.10263 -1.69424,1.69424 -4.79964,3.93425 -6.90088,4.97781 -3.34319,1.66034 -6.66247,1.93883 -26.57045,2.22922 L 220,235.16369 Z"
         id="path1" />
      <rect
         style="fill:none;fill-opacity:0.463509;stroke:#333333;stroke-width:6"
         id="rect1"
         width="390.32297"
         height="390.32297"
         x="46.669048"
         y="45.254829"
         ry="44.547726" />
    </g>
  </g>
  <g
     inkscape:groupmode="layer"
     id="layer3"
     inkscape:label="crop"
     transform="translate(-43.669048,-42.254829)" />
</svg>
